# xmcd
#
# Track frame offsets: 
#        150
#        11080
#        21647
#        39142
#        61752
#        78637
#        98030
#        111887
#        135232
#        148840
#        165075
#        181607
#
# Disc length: 2601 seconds
#
# Revision: 0
# Processed by: cddbd v1.5.2PL0 Copyright (c) Steve Scherf et al.
# Submitted via: ExactAudioCopy v0.90b4
#
DISCID=8c0a270c
DTITLE=Tennessee River Boys - Fire Of Faith
DYEAR=1994
DGENRE=Southern Gospel
TTITLE0=At Calvary
TTITLE1=Boundless Love
TTITLE2=Champion Of Love
TTITLE3=Daystar
TTITLE4=Gone
TTITLE5=Higher Than I've Ever Been
TTITLE6=Let's Have Church
TTITLE7=I Bowed On My Knees
TTITLE8=I Can't Even Walk
TTITLE9=I Know A Man
TTITLE10=I Lean On You Lord
TTITLE11=I've Read The Back Of The Book
EXTD=
EXTT0=
EXTT1=
EXTT2=
EXTT3=
EXTT4=
EXTT5=
EXTT6=
EXTT7=
EXTT8=
EXTT9=
EXTT10=
EXTT11=
PLAYORDER=
